<svg version="1.1" xmlns="http://www.w3.org/2000/svg" xmlns:xlink="http://www.w3.org/1999/xlink" viewBox="0 0 226 226"><g fill="none" fill-rule="nonzero" stroke="none" stroke-width="1" stroke-linecap="butt" stroke-linejoin="miter" stroke-miterlimit="10" stroke-dasharray="" stroke-dashoffset="0" font-family="none" font-weight="none" font-size="none" text-anchor="none" style="mix-blend-mode: normal"><path d="M0,226v-226h226v226z" fill="none"></path><g fill="#08743b"><path d="M31.64,9.04v207.92h136.94188l-7.6893,-9.04h-120.21258v-189.84h85.88v58.68938h58.76v54.31062h9.04v-60.56977l-1.15648,-1.15648c-0.16272,-0.19888 -0.34416,-0.3801 -0.53852,-0.54734l-59.77523,-59.76641zM135.6,24.40977l43.31961,43.39023h-43.31961zM77.49328,85.88l23.80945,40.68l-25.99,40.68h21.77016l14.15148,-26.25484c0.98536,-2.53572 1.62685,-4.47332 1.89805,-5.7118h0.14125c0.56048,2.65324 1.10888,4.45276 1.6332,5.43812l14.14266,26.53734h21.63774l-25.03656,-41.09492l24.3568,-40.27391h-20.41063l-12.92437,24.08312c-1.243,3.14592 -2.1256,5.63058 -2.58664,7.21258h-0.13242c-0.71416,-2.65324 -1.53666,-5.01791 -2.45422,-6.93891l-11.69727,-24.3568zM171.76,140.12v40.68h-22.6l38.40234,45.2l38.43766,-45.2h-22.6v-40.68zM180.8,149.16h13.56v40.68h11.75023l-18.54789,22.6l-18.51258,-22.6h11.75023z"></path></g></g></svg>